<mxfile host="app.diagrams.net" modified="2023-03-22T01:00:43.057Z" agent="5.0 (Windows NT 10.0; Win64; x64) AppleWebKit/537.36 (KHTML, like Gecko) Chrome/111.0.0.0 Safari/537.36" etag="kLXceFa--LttGwa73BLO" version="21.0.8" type="github">
  <diagram name="Página-1" id="uKL_mhRsSW6MwtCzb6Bg">
    <mxGraphModel dx="926" dy="467" grid="1" gridSize="10" guides="1" tooltips="1" connect="1" arrows="1" fold="1" page="1" pageScale="1" pageWidth="827" pageHeight="1169" math="0" shadow="0">
      <root>
        <mxCell id="0" />
        <mxCell id="1" parent="0" />
        <mxCell id="OpTlczWx6vNp9RMekso7-60" style="edgeStyle=orthogonalEdgeStyle;rounded=0;orthogonalLoop=1;jettySize=auto;html=1;entryX=0.5;entryY=0;entryDx=0;entryDy=0;entryPerimeter=0;" edge="1" parent="1" source="OpTlczWx6vNp9RMekso7-1" target="OpTlczWx6vNp9RMekso7-3">
          <mxGeometry relative="1" as="geometry" />
        </mxCell>
        <mxCell id="OpTlczWx6vNp9RMekso7-1" value="Inicio" style="html=1;dashed=0;whiteSpace=wrap;shape=mxgraph.dfd.start" vertex="1" parent="1">
          <mxGeometry x="130" y="30" width="80" height="30" as="geometry" />
        </mxCell>
        <mxCell id="OpTlczWx6vNp9RMekso7-58" style="edgeStyle=orthogonalEdgeStyle;rounded=0;orthogonalLoop=1;jettySize=auto;html=1;entryX=0.5;entryY=0;entryDx=0;entryDy=0;" edge="1" parent="1" source="OpTlczWx6vNp9RMekso7-2" target="OpTlczWx6vNp9RMekso7-5">
          <mxGeometry relative="1" as="geometry" />
        </mxCell>
        <mxCell id="OpTlczWx6vNp9RMekso7-2" value="finalPlaca" style="html=1;strokeWidth=2;shape=manualInput;whiteSpace=wrap;rounded=1;size=26;arcSize=11;" vertex="1" parent="1">
          <mxGeometry x="120" y="260" width="100" height="60" as="geometry" />
        </mxCell>
        <mxCell id="OpTlczWx6vNp9RMekso7-59" style="edgeStyle=orthogonalEdgeStyle;rounded=0;orthogonalLoop=1;jettySize=auto;html=1;entryX=0.5;entryY=0;entryDx=0;entryDy=0;" edge="1" parent="1" source="OpTlczWx6vNp9RMekso7-3" target="OpTlczWx6vNp9RMekso7-2">
          <mxGeometry relative="1" as="geometry" />
        </mxCell>
        <mxCell id="OpTlczWx6vNp9RMekso7-3" value="Informe o final &lt;br&gt;de sua placa" style="strokeWidth=2;html=1;shape=mxgraph.flowchart.display;whiteSpace=wrap;" vertex="1" parent="1">
          <mxGeometry x="110" y="110" width="120" height="80" as="geometry" />
        </mxCell>
        <mxCell id="OpTlczWx6vNp9RMekso7-7" style="edgeStyle=orthogonalEdgeStyle;rounded=0;orthogonalLoop=1;jettySize=auto;html=1;entryX=0;entryY=0.5;entryDx=0;entryDy=0;entryPerimeter=0;" edge="1" parent="1" source="OpTlczWx6vNp9RMekso7-5" target="OpTlczWx6vNp9RMekso7-6">
          <mxGeometry relative="1" as="geometry" />
        </mxCell>
        <mxCell id="OpTlczWx6vNp9RMekso7-32" style="edgeStyle=orthogonalEdgeStyle;rounded=0;orthogonalLoop=1;jettySize=auto;html=1;entryX=0.5;entryY=0;entryDx=0;entryDy=0;" edge="1" parent="1" source="OpTlczWx6vNp9RMekso7-5" target="OpTlczWx6vNp9RMekso7-9">
          <mxGeometry relative="1" as="geometry" />
        </mxCell>
        <mxCell id="OpTlczWx6vNp9RMekso7-5" value="1" style="shape=rhombus;html=1;dashed=0;whiteSpace=wrap;perimeter=rhombusPerimeter;" vertex="1" parent="1">
          <mxGeometry x="140" y="370" width="60" height="50" as="geometry" />
        </mxCell>
        <mxCell id="OpTlczWx6vNp9RMekso7-78" style="edgeStyle=orthogonalEdgeStyle;rounded=0;orthogonalLoop=1;jettySize=auto;html=1;entryX=0.5;entryY=0;entryDx=0;entryDy=0;" edge="1" parent="1" source="OpTlczWx6vNp9RMekso7-6" target="OpTlczWx6vNp9RMekso7-76">
          <mxGeometry relative="1" as="geometry" />
        </mxCell>
        <mxCell id="OpTlczWx6vNp9RMekso7-6" value="Pagamento até 30/04" style="strokeWidth=2;html=1;shape=mxgraph.flowchart.display;whiteSpace=wrap;" vertex="1" parent="1">
          <mxGeometry x="314" y="365" width="100" height="60" as="geometry" />
        </mxCell>
        <mxCell id="OpTlczWx6vNp9RMekso7-8" style="edgeStyle=orthogonalEdgeStyle;rounded=0;orthogonalLoop=1;jettySize=auto;html=1;entryX=0;entryY=0.5;entryDx=0;entryDy=0;entryPerimeter=0;" edge="1" parent="1" source="OpTlczWx6vNp9RMekso7-9" target="OpTlczWx6vNp9RMekso7-10">
          <mxGeometry relative="1" as="geometry" />
        </mxCell>
        <mxCell id="OpTlczWx6vNp9RMekso7-33" style="edgeStyle=orthogonalEdgeStyle;rounded=0;orthogonalLoop=1;jettySize=auto;html=1;" edge="1" parent="1" source="OpTlczWx6vNp9RMekso7-9" target="OpTlczWx6vNp9RMekso7-12">
          <mxGeometry relative="1" as="geometry" />
        </mxCell>
        <mxCell id="OpTlczWx6vNp9RMekso7-9" value="2" style="shape=rhombus;html=1;dashed=0;whiteSpace=wrap;perimeter=rhombusPerimeter;" vertex="1" parent="1">
          <mxGeometry x="140" y="455" width="60" height="50" as="geometry" />
        </mxCell>
        <mxCell id="OpTlczWx6vNp9RMekso7-79" style="edgeStyle=orthogonalEdgeStyle;rounded=0;orthogonalLoop=1;jettySize=auto;html=1;entryX=0;entryY=0.5;entryDx=0;entryDy=0;" edge="1" parent="1" source="OpTlczWx6vNp9RMekso7-10" target="OpTlczWx6vNp9RMekso7-76">
          <mxGeometry relative="1" as="geometry" />
        </mxCell>
        <mxCell id="OpTlczWx6vNp9RMekso7-10" value="Pagamento até 31/05" style="strokeWidth=2;html=1;shape=mxgraph.flowchart.display;whiteSpace=wrap;" vertex="1" parent="1">
          <mxGeometry x="314" y="450" width="100" height="60" as="geometry" />
        </mxCell>
        <mxCell id="OpTlczWx6vNp9RMekso7-11" style="edgeStyle=orthogonalEdgeStyle;rounded=0;orthogonalLoop=1;jettySize=auto;html=1;entryX=0;entryY=0.5;entryDx=0;entryDy=0;entryPerimeter=0;" edge="1" parent="1" source="OpTlczWx6vNp9RMekso7-12" target="OpTlczWx6vNp9RMekso7-13">
          <mxGeometry relative="1" as="geometry" />
        </mxCell>
        <mxCell id="OpTlczWx6vNp9RMekso7-34" style="edgeStyle=orthogonalEdgeStyle;rounded=0;orthogonalLoop=1;jettySize=auto;html=1;entryX=0.5;entryY=0;entryDx=0;entryDy=0;" edge="1" parent="1" source="OpTlczWx6vNp9RMekso7-12" target="OpTlczWx6vNp9RMekso7-15">
          <mxGeometry relative="1" as="geometry" />
        </mxCell>
        <mxCell id="OpTlczWx6vNp9RMekso7-12" value="3" style="shape=rhombus;html=1;dashed=0;whiteSpace=wrap;perimeter=rhombusPerimeter;" vertex="1" parent="1">
          <mxGeometry x="140" y="540" width="60" height="50" as="geometry" />
        </mxCell>
        <mxCell id="OpTlczWx6vNp9RMekso7-81" style="edgeStyle=orthogonalEdgeStyle;rounded=0;orthogonalLoop=1;jettySize=auto;html=1;entryX=0;entryY=0.5;entryDx=0;entryDy=0;" edge="1" parent="1" source="OpTlczWx6vNp9RMekso7-13" target="OpTlczWx6vNp9RMekso7-63">
          <mxGeometry relative="1" as="geometry" />
        </mxCell>
        <mxCell id="OpTlczWx6vNp9RMekso7-13" value="Pagamento ate 30/06" style="strokeWidth=2;html=1;shape=mxgraph.flowchart.display;whiteSpace=wrap;" vertex="1" parent="1">
          <mxGeometry x="314" y="535" width="100" height="60" as="geometry" />
        </mxCell>
        <mxCell id="OpTlczWx6vNp9RMekso7-14" style="edgeStyle=orthogonalEdgeStyle;rounded=0;orthogonalLoop=1;jettySize=auto;html=1;entryX=0;entryY=0.5;entryDx=0;entryDy=0;entryPerimeter=0;" edge="1" parent="1" source="OpTlczWx6vNp9RMekso7-15" target="OpTlczWx6vNp9RMekso7-16">
          <mxGeometry relative="1" as="geometry" />
        </mxCell>
        <mxCell id="OpTlczWx6vNp9RMekso7-35" style="edgeStyle=orthogonalEdgeStyle;rounded=0;orthogonalLoop=1;jettySize=auto;html=1;entryX=0.5;entryY=0;entryDx=0;entryDy=0;" edge="1" parent="1" source="OpTlczWx6vNp9RMekso7-15" target="OpTlczWx6vNp9RMekso7-18">
          <mxGeometry relative="1" as="geometry" />
        </mxCell>
        <mxCell id="OpTlczWx6vNp9RMekso7-15" value="4" style="shape=rhombus;html=1;dashed=0;whiteSpace=wrap;perimeter=rhombusPerimeter;" vertex="1" parent="1">
          <mxGeometry x="140" y="615" width="60" height="50" as="geometry" />
        </mxCell>
        <mxCell id="OpTlczWx6vNp9RMekso7-83" style="edgeStyle=orthogonalEdgeStyle;rounded=0;orthogonalLoop=1;jettySize=auto;html=1;entryX=0;entryY=0.5;entryDx=0;entryDy=0;" edge="1" parent="1" source="OpTlczWx6vNp9RMekso7-16" target="OpTlczWx6vNp9RMekso7-64">
          <mxGeometry relative="1" as="geometry" />
        </mxCell>
        <mxCell id="OpTlczWx6vNp9RMekso7-16" value="Pagamento até 31/07" style="strokeWidth=2;html=1;shape=mxgraph.flowchart.display;whiteSpace=wrap;" vertex="1" parent="1">
          <mxGeometry x="314" y="610" width="100" height="60" as="geometry" />
        </mxCell>
        <mxCell id="OpTlczWx6vNp9RMekso7-17" style="edgeStyle=orthogonalEdgeStyle;rounded=0;orthogonalLoop=1;jettySize=auto;html=1;entryX=0;entryY=0.5;entryDx=0;entryDy=0;entryPerimeter=0;" edge="1" parent="1" source="OpTlczWx6vNp9RMekso7-18" target="OpTlczWx6vNp9RMekso7-19">
          <mxGeometry relative="1" as="geometry" />
        </mxCell>
        <mxCell id="OpTlczWx6vNp9RMekso7-36" style="edgeStyle=orthogonalEdgeStyle;rounded=0;orthogonalLoop=1;jettySize=auto;html=1;entryX=0.5;entryY=0;entryDx=0;entryDy=0;" edge="1" parent="1" source="OpTlczWx6vNp9RMekso7-18" target="OpTlczWx6vNp9RMekso7-21">
          <mxGeometry relative="1" as="geometry" />
        </mxCell>
        <mxCell id="OpTlczWx6vNp9RMekso7-18" value="5" style="shape=rhombus;html=1;dashed=0;whiteSpace=wrap;perimeter=rhombusPerimeter;" vertex="1" parent="1">
          <mxGeometry x="140" y="700" width="60" height="50" as="geometry" />
        </mxCell>
        <mxCell id="OpTlczWx6vNp9RMekso7-85" style="edgeStyle=orthogonalEdgeStyle;rounded=0;orthogonalLoop=1;jettySize=auto;html=1;entryX=0;entryY=0.5;entryDx=0;entryDy=0;" edge="1" parent="1" source="OpTlczWx6vNp9RMekso7-19" target="OpTlczWx6vNp9RMekso7-65">
          <mxGeometry relative="1" as="geometry" />
        </mxCell>
        <mxCell id="OpTlczWx6vNp9RMekso7-19" value="Pagamento até 31/08" style="strokeWidth=2;html=1;shape=mxgraph.flowchart.display;whiteSpace=wrap;" vertex="1" parent="1">
          <mxGeometry x="314" y="695" width="100" height="60" as="geometry" />
        </mxCell>
        <mxCell id="OpTlczWx6vNp9RMekso7-20" style="edgeStyle=orthogonalEdgeStyle;rounded=0;orthogonalLoop=1;jettySize=auto;html=1;entryX=0;entryY=0.5;entryDx=0;entryDy=0;entryPerimeter=0;" edge="1" parent="1" source="OpTlczWx6vNp9RMekso7-21" target="OpTlczWx6vNp9RMekso7-22">
          <mxGeometry relative="1" as="geometry" />
        </mxCell>
        <mxCell id="OpTlczWx6vNp9RMekso7-37" style="edgeStyle=orthogonalEdgeStyle;rounded=0;orthogonalLoop=1;jettySize=auto;html=1;entryX=0.5;entryY=0;entryDx=0;entryDy=0;" edge="1" parent="1" source="OpTlczWx6vNp9RMekso7-21" target="OpTlczWx6vNp9RMekso7-24">
          <mxGeometry relative="1" as="geometry" />
        </mxCell>
        <mxCell id="OpTlczWx6vNp9RMekso7-21" value="6" style="shape=rhombus;html=1;dashed=0;whiteSpace=wrap;perimeter=rhombusPerimeter;" vertex="1" parent="1">
          <mxGeometry x="140" y="785" width="60" height="50" as="geometry" />
        </mxCell>
        <mxCell id="OpTlczWx6vNp9RMekso7-87" style="edgeStyle=orthogonalEdgeStyle;rounded=0;orthogonalLoop=1;jettySize=auto;html=1;" edge="1" parent="1" source="OpTlczWx6vNp9RMekso7-22">
          <mxGeometry relative="1" as="geometry">
            <mxPoint x="450" y="810" as="targetPoint" />
          </mxGeometry>
        </mxCell>
        <mxCell id="OpTlczWx6vNp9RMekso7-22" value="Pagamento ate 30/09" style="strokeWidth=2;html=1;shape=mxgraph.flowchart.display;whiteSpace=wrap;" vertex="1" parent="1">
          <mxGeometry x="314" y="780" width="100" height="60" as="geometry" />
        </mxCell>
        <mxCell id="OpTlczWx6vNp9RMekso7-23" style="edgeStyle=orthogonalEdgeStyle;rounded=0;orthogonalLoop=1;jettySize=auto;html=1;entryX=0;entryY=0.5;entryDx=0;entryDy=0;entryPerimeter=0;" edge="1" parent="1" source="OpTlczWx6vNp9RMekso7-24" target="OpTlczWx6vNp9RMekso7-25">
          <mxGeometry relative="1" as="geometry" />
        </mxCell>
        <mxCell id="OpTlczWx6vNp9RMekso7-90" style="edgeStyle=orthogonalEdgeStyle;rounded=0;orthogonalLoop=1;jettySize=auto;html=1;entryX=0.5;entryY=0;entryDx=0;entryDy=0;" edge="1" parent="1" source="OpTlczWx6vNp9RMekso7-24" target="OpTlczWx6vNp9RMekso7-61">
          <mxGeometry relative="1" as="geometry" />
        </mxCell>
        <mxCell id="OpTlczWx6vNp9RMekso7-24" value="7" style="shape=rhombus;html=1;dashed=0;whiteSpace=wrap;perimeter=rhombusPerimeter;" vertex="1" parent="1">
          <mxGeometry x="140" y="870" width="60" height="50" as="geometry" />
        </mxCell>
        <mxCell id="OpTlczWx6vNp9RMekso7-89" style="edgeStyle=orthogonalEdgeStyle;rounded=0;orthogonalLoop=1;jettySize=auto;html=1;entryX=0;entryY=0.5;entryDx=0;entryDy=0;" edge="1" parent="1" source="OpTlczWx6vNp9RMekso7-25" target="OpTlczWx6vNp9RMekso7-67">
          <mxGeometry relative="1" as="geometry" />
        </mxCell>
        <mxCell id="OpTlczWx6vNp9RMekso7-25" value="Pagamento até 31/10" style="strokeWidth=2;html=1;shape=mxgraph.flowchart.display;whiteSpace=wrap;" vertex="1" parent="1">
          <mxGeometry x="314" y="865" width="100" height="60" as="geometry" />
        </mxCell>
        <mxCell id="OpTlczWx6vNp9RMekso7-26" style="edgeStyle=orthogonalEdgeStyle;rounded=0;orthogonalLoop=1;jettySize=auto;html=1;entryX=0;entryY=0.5;entryDx=0;entryDy=0;entryPerimeter=0;" edge="1" parent="1" source="OpTlczWx6vNp9RMekso7-27" target="OpTlczWx6vNp9RMekso7-28">
          <mxGeometry relative="1" as="geometry" />
        </mxCell>
        <mxCell id="OpTlczWx6vNp9RMekso7-39" style="edgeStyle=orthogonalEdgeStyle;rounded=0;orthogonalLoop=1;jettySize=auto;html=1;entryX=0.5;entryY=0;entryDx=0;entryDy=0;" edge="1" parent="1" source="OpTlczWx6vNp9RMekso7-27" target="OpTlczWx6vNp9RMekso7-30">
          <mxGeometry relative="1" as="geometry" />
        </mxCell>
        <mxCell id="OpTlczWx6vNp9RMekso7-27" value="8" style="shape=rhombus;html=1;dashed=0;whiteSpace=wrap;perimeter=rhombusPerimeter;" vertex="1" parent="1">
          <mxGeometry x="442.5" y="95" width="60" height="50" as="geometry" />
        </mxCell>
        <mxCell id="OpTlczWx6vNp9RMekso7-96" style="edgeStyle=orthogonalEdgeStyle;rounded=0;orthogonalLoop=1;jettySize=auto;html=1;entryX=0;entryY=0.5;entryDx=0;entryDy=0;" edge="1" parent="1" source="OpTlczWx6vNp9RMekso7-28" target="OpTlczWx6vNp9RMekso7-94">
          <mxGeometry relative="1" as="geometry" />
        </mxCell>
        <mxCell id="OpTlczWx6vNp9RMekso7-28" value="Pagamento até 30/11" style="strokeWidth=2;html=1;shape=mxgraph.flowchart.display;whiteSpace=wrap;" vertex="1" parent="1">
          <mxGeometry x="560" y="90" width="100" height="60" as="geometry" />
        </mxCell>
        <mxCell id="OpTlczWx6vNp9RMekso7-29" style="edgeStyle=orthogonalEdgeStyle;rounded=0;orthogonalLoop=1;jettySize=auto;html=1;entryX=0;entryY=0.5;entryDx=0;entryDy=0;entryPerimeter=0;" edge="1" parent="1" source="OpTlczWx6vNp9RMekso7-30" target="OpTlczWx6vNp9RMekso7-31">
          <mxGeometry relative="1" as="geometry" />
        </mxCell>
        <mxCell id="OpTlczWx6vNp9RMekso7-74" style="edgeStyle=orthogonalEdgeStyle;rounded=0;orthogonalLoop=1;jettySize=auto;html=1;" edge="1" parent="1" source="OpTlczWx6vNp9RMekso7-30">
          <mxGeometry relative="1" as="geometry">
            <mxPoint x="472.5" y="280" as="targetPoint" />
          </mxGeometry>
        </mxCell>
        <mxCell id="OpTlczWx6vNp9RMekso7-30" value="9 ou 0" style="shape=rhombus;html=1;dashed=0;whiteSpace=wrap;perimeter=rhombusPerimeter;" vertex="1" parent="1">
          <mxGeometry x="442.5" y="180" width="60" height="50" as="geometry" />
        </mxCell>
        <mxCell id="OpTlczWx6vNp9RMekso7-102" style="edgeStyle=orthogonalEdgeStyle;rounded=0;orthogonalLoop=1;jettySize=auto;html=1;" edge="1" parent="1" source="OpTlczWx6vNp9RMekso7-31" target="OpTlczWx6vNp9RMekso7-99">
          <mxGeometry relative="1" as="geometry" />
        </mxCell>
        <mxCell id="OpTlczWx6vNp9RMekso7-31" value="Pagamento até 31/12" style="strokeWidth=2;html=1;shape=mxgraph.flowchart.display;whiteSpace=wrap;" vertex="1" parent="1">
          <mxGeometry x="560" y="175" width="100" height="60" as="geometry" />
        </mxCell>
        <mxCell id="OpTlczWx6vNp9RMekso7-40" value="Sim" style="text;html=1;align=center;verticalAlign=middle;resizable=0;points=[];autosize=1;strokeColor=none;fillColor=none;" vertex="1" parent="1">
          <mxGeometry x="210" y="365" width="40" height="30" as="geometry" />
        </mxCell>
        <mxCell id="OpTlczWx6vNp9RMekso7-41" value="Não" style="text;html=1;align=center;verticalAlign=middle;resizable=0;points=[];autosize=1;strokeColor=none;fillColor=none;" vertex="1" parent="1">
          <mxGeometry x="125" y="415" width="50" height="30" as="geometry" />
        </mxCell>
        <mxCell id="OpTlczWx6vNp9RMekso7-42" value="Sim" style="text;html=1;align=center;verticalAlign=middle;resizable=0;points=[];autosize=1;strokeColor=none;fillColor=none;" vertex="1" parent="1">
          <mxGeometry x="205" y="455" width="40" height="30" as="geometry" />
        </mxCell>
        <mxCell id="OpTlczWx6vNp9RMekso7-43" value="Não" style="text;html=1;align=center;verticalAlign=middle;resizable=0;points=[];autosize=1;strokeColor=none;fillColor=none;" vertex="1" parent="1">
          <mxGeometry x="120" y="505" width="50" height="30" as="geometry" />
        </mxCell>
        <mxCell id="OpTlczWx6vNp9RMekso7-44" value="Sim" style="text;html=1;align=center;verticalAlign=middle;resizable=0;points=[];autosize=1;strokeColor=none;fillColor=none;" vertex="1" parent="1">
          <mxGeometry x="205" y="535" width="40" height="30" as="geometry" />
        </mxCell>
        <mxCell id="OpTlczWx6vNp9RMekso7-45" value="Não" style="text;html=1;align=center;verticalAlign=middle;resizable=0;points=[];autosize=1;strokeColor=none;fillColor=none;" vertex="1" parent="1">
          <mxGeometry x="120" y="585" width="50" height="30" as="geometry" />
        </mxCell>
        <mxCell id="OpTlczWx6vNp9RMekso7-46" value="Sim" style="text;html=1;align=center;verticalAlign=middle;resizable=0;points=[];autosize=1;strokeColor=none;fillColor=none;" vertex="1" parent="1">
          <mxGeometry x="205" y="610" width="40" height="30" as="geometry" />
        </mxCell>
        <mxCell id="OpTlczWx6vNp9RMekso7-47" value="Não" style="text;html=1;align=center;verticalAlign=middle;resizable=0;points=[];autosize=1;strokeColor=none;fillColor=none;" vertex="1" parent="1">
          <mxGeometry x="120" y="660" width="50" height="30" as="geometry" />
        </mxCell>
        <mxCell id="OpTlczWx6vNp9RMekso7-48" value="Sim" style="text;html=1;align=center;verticalAlign=middle;resizable=0;points=[];autosize=1;strokeColor=none;fillColor=none;" vertex="1" parent="1">
          <mxGeometry x="205" y="700" width="40" height="30" as="geometry" />
        </mxCell>
        <mxCell id="OpTlczWx6vNp9RMekso7-49" value="Não" style="text;html=1;align=center;verticalAlign=middle;resizable=0;points=[];autosize=1;strokeColor=none;fillColor=none;" vertex="1" parent="1">
          <mxGeometry x="120" y="750" width="50" height="30" as="geometry" />
        </mxCell>
        <mxCell id="OpTlczWx6vNp9RMekso7-50" value="Sim" style="text;html=1;align=center;verticalAlign=middle;resizable=0;points=[];autosize=1;strokeColor=none;fillColor=none;" vertex="1" parent="1">
          <mxGeometry x="205" y="780" width="40" height="30" as="geometry" />
        </mxCell>
        <mxCell id="OpTlczWx6vNp9RMekso7-51" value="Não" style="text;html=1;align=center;verticalAlign=middle;resizable=0;points=[];autosize=1;strokeColor=none;fillColor=none;" vertex="1" parent="1">
          <mxGeometry x="120" y="830" width="50" height="30" as="geometry" />
        </mxCell>
        <mxCell id="OpTlczWx6vNp9RMekso7-52" value="Sim" style="text;html=1;align=center;verticalAlign=middle;resizable=0;points=[];autosize=1;strokeColor=none;fillColor=none;" vertex="1" parent="1">
          <mxGeometry x="195" y="870" width="40" height="30" as="geometry" />
        </mxCell>
        <mxCell id="OpTlczWx6vNp9RMekso7-53" value="Não" style="text;html=1;align=center;verticalAlign=middle;resizable=0;points=[];autosize=1;strokeColor=none;fillColor=none;" vertex="1" parent="1">
          <mxGeometry x="110" y="920" width="50" height="30" as="geometry" />
        </mxCell>
        <mxCell id="OpTlczWx6vNp9RMekso7-54" value="Sim" style="text;html=1;align=center;verticalAlign=middle;resizable=0;points=[];autosize=1;strokeColor=none;fillColor=none;" vertex="1" parent="1">
          <mxGeometry x="495" y="90" width="40" height="30" as="geometry" />
        </mxCell>
        <mxCell id="OpTlczWx6vNp9RMekso7-55" value="Não" style="text;html=1;align=center;verticalAlign=middle;resizable=0;points=[];autosize=1;strokeColor=none;fillColor=none;" vertex="1" parent="1">
          <mxGeometry x="420" y="150" width="50" height="30" as="geometry" />
        </mxCell>
        <mxCell id="OpTlczWx6vNp9RMekso7-56" value="Sim" style="text;html=1;align=center;verticalAlign=middle;resizable=0;points=[];autosize=1;strokeColor=none;fillColor=none;" vertex="1" parent="1">
          <mxGeometry x="495" y="175" width="40" height="30" as="geometry" />
        </mxCell>
        <mxCell id="OpTlczWx6vNp9RMekso7-61" value="A" style="shape=ellipse;html=1;dashed=0;whiteSpace=wrap;aspect=fixed;perimeter=ellipsePerimeter;" vertex="1" parent="1">
          <mxGeometry x="155" y="1010" width="30" height="30" as="geometry" />
        </mxCell>
        <mxCell id="OpTlczWx6vNp9RMekso7-82" style="edgeStyle=orthogonalEdgeStyle;rounded=0;orthogonalLoop=1;jettySize=auto;html=1;entryX=0.5;entryY=0;entryDx=0;entryDy=0;" edge="1" parent="1" source="OpTlczWx6vNp9RMekso7-63" target="OpTlczWx6vNp9RMekso7-64">
          <mxGeometry relative="1" as="geometry" />
        </mxCell>
        <mxCell id="OpTlczWx6vNp9RMekso7-63" value="" style="shape=ellipse;html=1;dashed=0;whiteSpace=wrap;aspect=fixed;perimeter=ellipsePerimeter;" vertex="1" parent="1">
          <mxGeometry x="455" y="540" width="35" height="35" as="geometry" />
        </mxCell>
        <mxCell id="OpTlczWx6vNp9RMekso7-84" style="edgeStyle=orthogonalEdgeStyle;rounded=0;orthogonalLoop=1;jettySize=auto;html=1;entryX=0.5;entryY=0;entryDx=0;entryDy=0;" edge="1" parent="1" source="OpTlczWx6vNp9RMekso7-64" target="OpTlczWx6vNp9RMekso7-65">
          <mxGeometry relative="1" as="geometry" />
        </mxCell>
        <mxCell id="OpTlczWx6vNp9RMekso7-64" value="" style="shape=ellipse;html=1;dashed=0;whiteSpace=wrap;aspect=fixed;perimeter=ellipsePerimeter;" vertex="1" parent="1">
          <mxGeometry x="455" y="622.5" width="35" height="35" as="geometry" />
        </mxCell>
        <mxCell id="OpTlczWx6vNp9RMekso7-86" style="edgeStyle=orthogonalEdgeStyle;rounded=0;orthogonalLoop=1;jettySize=auto;html=1;entryX=0.5;entryY=0;entryDx=0;entryDy=0;" edge="1" parent="1" source="OpTlczWx6vNp9RMekso7-65" target="OpTlczWx6vNp9RMekso7-66">
          <mxGeometry relative="1" as="geometry" />
        </mxCell>
        <mxCell id="OpTlczWx6vNp9RMekso7-65" value="" style="shape=ellipse;html=1;dashed=0;whiteSpace=wrap;aspect=fixed;perimeter=ellipsePerimeter;" vertex="1" parent="1">
          <mxGeometry x="455" y="707.5" width="35" height="35" as="geometry" />
        </mxCell>
        <mxCell id="OpTlczWx6vNp9RMekso7-88" style="edgeStyle=orthogonalEdgeStyle;rounded=0;orthogonalLoop=1;jettySize=auto;html=1;" edge="1" parent="1" source="OpTlczWx6vNp9RMekso7-66">
          <mxGeometry relative="1" as="geometry">
            <mxPoint x="472.5" y="880" as="targetPoint" />
          </mxGeometry>
        </mxCell>
        <mxCell id="OpTlczWx6vNp9RMekso7-66" value="" style="shape=ellipse;html=1;dashed=0;whiteSpace=wrap;aspect=fixed;perimeter=ellipsePerimeter;" vertex="1" parent="1">
          <mxGeometry x="455" y="792.5" width="35" height="35" as="geometry" />
        </mxCell>
        <mxCell id="OpTlczWx6vNp9RMekso7-92" style="edgeStyle=orthogonalEdgeStyle;rounded=0;orthogonalLoop=1;jettySize=auto;html=1;entryX=0.5;entryY=0;entryDx=0;entryDy=0;" edge="1" parent="1" source="OpTlczWx6vNp9RMekso7-67" target="OpTlczWx6vNp9RMekso7-91">
          <mxGeometry relative="1" as="geometry" />
        </mxCell>
        <mxCell id="OpTlczWx6vNp9RMekso7-67" value="" style="shape=ellipse;html=1;dashed=0;whiteSpace=wrap;aspect=fixed;perimeter=ellipsePerimeter;" vertex="1" parent="1">
          <mxGeometry x="457.5" y="882.5" width="35" height="35" as="geometry" />
        </mxCell>
        <mxCell id="OpTlczWx6vNp9RMekso7-75" style="edgeStyle=orthogonalEdgeStyle;rounded=0;orthogonalLoop=1;jettySize=auto;html=1;entryX=0.5;entryY=0;entryDx=0;entryDy=0;" edge="1" parent="1" source="OpTlczWx6vNp9RMekso7-68" target="OpTlczWx6vNp9RMekso7-27">
          <mxGeometry relative="1" as="geometry" />
        </mxCell>
        <mxCell id="OpTlczWx6vNp9RMekso7-68" value="A" style="shape=ellipse;html=1;dashed=0;whiteSpace=wrap;aspect=fixed;perimeter=ellipsePerimeter;" vertex="1" parent="1">
          <mxGeometry x="457.5" y="30" width="30" height="30" as="geometry" />
        </mxCell>
        <mxCell id="OpTlczWx6vNp9RMekso7-108" style="edgeStyle=orthogonalEdgeStyle;rounded=0;orthogonalLoop=1;jettySize=auto;html=1;entryX=0;entryY=0.5;entryDx=0;entryDy=0;" edge="1" parent="1" source="OpTlczWx6vNp9RMekso7-71" target="OpTlczWx6vNp9RMekso7-107">
          <mxGeometry relative="1" as="geometry" />
        </mxCell>
        <mxCell id="OpTlczWx6vNp9RMekso7-71" value="Valor digitado incorreto" style="strokeWidth=2;html=1;shape=mxgraph.flowchart.display;whiteSpace=wrap;" vertex="1" parent="1">
          <mxGeometry x="422.5" y="280" width="100" height="60" as="geometry" />
        </mxCell>
        <mxCell id="OpTlczWx6vNp9RMekso7-73" value="Não" style="text;html=1;align=center;verticalAlign=middle;resizable=0;points=[];autosize=1;strokeColor=none;fillColor=none;" vertex="1" parent="1">
          <mxGeometry x="420" y="235" width="50" height="30" as="geometry" />
        </mxCell>
        <mxCell id="OpTlczWx6vNp9RMekso7-80" style="edgeStyle=orthogonalEdgeStyle;rounded=0;orthogonalLoop=1;jettySize=auto;html=1;entryX=0.5;entryY=0;entryDx=0;entryDy=0;" edge="1" parent="1" source="OpTlczWx6vNp9RMekso7-76" target="OpTlczWx6vNp9RMekso7-63">
          <mxGeometry relative="1" as="geometry" />
        </mxCell>
        <mxCell id="OpTlczWx6vNp9RMekso7-76" value="" style="shape=ellipse;html=1;dashed=0;whiteSpace=wrap;aspect=fixed;perimeter=ellipsePerimeter;" vertex="1" parent="1">
          <mxGeometry x="455" y="462.5" width="35" height="35" as="geometry" />
        </mxCell>
        <mxCell id="OpTlczWx6vNp9RMekso7-91" value="B" style="shape=ellipse;html=1;dashed=0;whiteSpace=wrap;aspect=fixed;perimeter=ellipsePerimeter;" vertex="1" parent="1">
          <mxGeometry x="460" y="990" width="30" height="30" as="geometry" />
        </mxCell>
        <mxCell id="OpTlczWx6vNp9RMekso7-98" style="edgeStyle=orthogonalEdgeStyle;rounded=0;orthogonalLoop=1;jettySize=auto;html=1;" edge="1" parent="1" source="OpTlczWx6vNp9RMekso7-93">
          <mxGeometry relative="1" as="geometry">
            <mxPoint x="715" y="100" as="targetPoint" />
          </mxGeometry>
        </mxCell>
        <mxCell id="OpTlczWx6vNp9RMekso7-93" value="B" style="shape=ellipse;html=1;dashed=0;whiteSpace=wrap;aspect=fixed;perimeter=ellipsePerimeter;" vertex="1" parent="1">
          <mxGeometry x="700" y="30" width="30" height="30" as="geometry" />
        </mxCell>
        <mxCell id="OpTlczWx6vNp9RMekso7-101" style="edgeStyle=orthogonalEdgeStyle;rounded=0;orthogonalLoop=1;jettySize=auto;html=1;entryX=0.5;entryY=0;entryDx=0;entryDy=0;" edge="1" parent="1" source="OpTlczWx6vNp9RMekso7-94" target="OpTlczWx6vNp9RMekso7-99">
          <mxGeometry relative="1" as="geometry" />
        </mxCell>
        <mxCell id="OpTlczWx6vNp9RMekso7-94" value="" style="shape=ellipse;html=1;dashed=0;whiteSpace=wrap;aspect=fixed;perimeter=ellipsePerimeter;" vertex="1" parent="1">
          <mxGeometry x="697.5" y="102.5" width="35" height="35" as="geometry" />
        </mxCell>
        <mxCell id="OpTlczWx6vNp9RMekso7-110" style="edgeStyle=orthogonalEdgeStyle;rounded=0;orthogonalLoop=1;jettySize=auto;html=1;entryX=0.5;entryY=0;entryDx=0;entryDy=0;" edge="1" parent="1" source="OpTlczWx6vNp9RMekso7-99" target="OpTlczWx6vNp9RMekso7-107">
          <mxGeometry relative="1" as="geometry" />
        </mxCell>
        <mxCell id="OpTlczWx6vNp9RMekso7-99" value="" style="shape=ellipse;html=1;dashed=0;whiteSpace=wrap;aspect=fixed;perimeter=ellipsePerimeter;" vertex="1" parent="1">
          <mxGeometry x="697.5" y="187.5" width="35" height="35" as="geometry" />
        </mxCell>
        <mxCell id="OpTlczWx6vNp9RMekso7-106" value="Fim" style="html=1;dashed=0;whiteSpace=wrap;shape=mxgraph.dfd.start" vertex="1" parent="1">
          <mxGeometry x="675" y="380" width="80" height="30" as="geometry" />
        </mxCell>
        <mxCell id="OpTlczWx6vNp9RMekso7-111" style="edgeStyle=orthogonalEdgeStyle;rounded=0;orthogonalLoop=1;jettySize=auto;html=1;entryX=0.5;entryY=0.5;entryDx=0;entryDy=-15;entryPerimeter=0;" edge="1" parent="1" source="OpTlczWx6vNp9RMekso7-107" target="OpTlczWx6vNp9RMekso7-106">
          <mxGeometry relative="1" as="geometry" />
        </mxCell>
        <mxCell id="OpTlczWx6vNp9RMekso7-107" value="" style="shape=ellipse;html=1;dashed=0;whiteSpace=wrap;aspect=fixed;perimeter=ellipsePerimeter;" vertex="1" parent="1">
          <mxGeometry x="697.5" y="292.5" width="35" height="35" as="geometry" />
        </mxCell>
      </root>
    </mxGraphModel>
  </diagram>
</mxfile>
